<?xml version="1.0" encoding="UTF-8"?>
<svg xmlns="http://www.w3.org/2000/svg" xmlns:xlink="http://www.w3.org/1999/xlink" width="375pt" height="374.999991pt" viewBox="0 0 375 374.999991" version="1.2">
<defs>
<clipPath id="clip1">
  <path d="M 143 254 L 158 254 L 158 262.5 L 143 262.5 Z M 143 254 "/>
</clipPath>
<clipPath id="clip2">
  <path d="M 143 259 L 158 259 L 158 262.5 L 143 262.5 Z M 143 259 "/>
</clipPath>
<clipPath id="clip3">
  <path d="M 121 254 L 137 254 L 137 262.5 L 121 262.5 Z M 121 254 "/>
</clipPath>
<clipPath id="clip4">
  <path d="M 122 259 L 137 259 L 137 262.5 L 122 262.5 Z M 122 259 "/>
</clipPath>
<clipPath id="clip5">
  <path d="M 130 112.5 L 135 112.5 L 135 117 L 130 117 Z M 130 112.5 "/>
</clipPath>
</defs>
<g id="surface1">
<path style=" stroke:none;fill-rule:nonzero;fill:rgb(132,83,72);fill-opacity:1;" d="M 143.980469 256.015625 C 143.996094 254.5625 144.09375 252.894531 144.496094 252.28125 C 145.125 251.210938 145.605469 252.847656 146.925781 252.742188 L 147.933594 251.335938 C 147.738281 252.675781 148.6875 254.328125 149.777344 255.15625 C 150.078125 255.449219 150.441406 255.734375 150.839844 255.988281 L 143.980469 256.015625 "/>
<g clip-path="url(#clip1)" clip-rule="nonzero">
<path style=" stroke:none;fill-rule:nonzero;fill:#fff559;fill-opacity:1;" d="M 144 255.132812 C 145.65625 255.738281 147.867188 255.675781 149.394531 254.824219 C 149.519531 254.945312 149.648438 255.058594 149.777344 255.15625 C 150.554688 255.910156 151.738281 256.628906 152.878906 256.839844 C 153.816406 257.070312 154.890625 256.476562 155.941406 256.796875 C 158.25 257.527344 158.699219 260.542969 156.53125 261.53125 C 154.566406 262.503906 152.164062 261.886719 150.085938 261.441406 C 147.683594 260.824219 142.980469 261.902344 143.5 257.882812 C 143.574219 257.285156 143.957031 256.289062 144 255.132812 "/>
</g>
<g clip-path="url(#clip2)" clip-rule="nonzero">
<path style=" stroke:none;fill-rule:nonzero;fill:rgb(100%,100%,100%);fill-opacity:1;" d="M 150.027344 260.542969 C 152.285156 260.988281 154.894531 261.609375 157.027344 260.632812 C 157.34375 260.5 157.605469 260.332031 157.820312 260.136719 C 157.632812 260.714844 157.210938 261.222656 156.53125 261.53125 C 154.566406 262.503906 152.164062 261.886719 150.085938 261.441406 C 148.035156 260.914062 144.308594 261.621094 143.585938 259.335938 C 145.019531 260.53125 148.164062 260.101562 150.027344 260.542969 "/>
</g>
<path style=" stroke:none;fill-rule:nonzero;fill:rgb(8.239746%,10.198975%,21.179199%);fill-opacity:1;" d="M 155.070312 256.3125 C 153.480469 255.984375 152.429688 257.554688 152.007812 258.863281 C 151.886719 259.230469 151.808594 259.613281 151.785156 259.996094 C 151.757812 260.363281 152.328125 260.359375 152.351562 259.996094 C 152.40625 259.246094 152.703125 258.449219 153.136719 257.816406 C 153.535156 257.222656 154.167969 256.703125 154.921875 256.859375 C 155.277344 256.933594 155.429688 256.386719 155.070312 256.3125 "/>
<path style=" stroke:none;fill-rule:nonzero;fill:rgb(8.239746%,10.198975%,21.179199%);fill-opacity:1;" d="M 151.789062 256.039062 C 151.421875 256.097656 151.0625 256.265625 150.792969 256.523438 C 150.515625 256.792969 150.351562 257.160156 150.351562 257.546875 C 150.351562 257.695312 150.484375 257.835938 150.636719 257.832031 C 150.789062 257.824219 150.921875 257.707031 150.921875 257.546875 C 150.921875 257.507812 150.921875 257.46875 150.925781 257.425781 C 150.929688 257.371094 150.914062 257.5 150.925781 257.425781 L 150.9375 257.371094 L 150.96875 257.261719 L 150.984375 257.214844 C 151.003906 257.164062 150.960938 257.273438 150.984375 257.226562 C 151.015625 257.15625 151.054688 257.09375 151.097656 257.03125 C 151.128906 256.984375 151.058594 257.078125 151.089844 257.039062 L 151.132812 256.988281 L 151.207031 256.914062 L 151.289062 256.84375 C 151.332031 256.808594 151.234375 256.882812 151.289062 256.84375 L 151.335938 256.808594 C 151.402344 256.769531 151.46875 256.730469 151.535156 256.699219 C 151.554688 256.691406 151.617188 256.667969 151.539062 256.695312 L 151.585938 256.679688 L 151.699219 256.640625 C 151.777344 256.617188 151.859375 256.601562 151.941406 256.585938 C 152.003906 256.578125 152.078125 256.511719 152.109375 256.457031 C 152.144531 256.398438 152.160156 256.308594 152.140625 256.238281 C 152.085938 256.078125 151.945312 256.015625 151.789062 256.039062 "/>
<path style=" stroke:none;fill-rule:nonzero;fill:rgb(8.239746%,10.198975%,21.179199%);fill-opacity:1;" d="M 151.007812 255.371094 C 150.628906 255.378906 150.285156 255.535156 150.015625 255.800781 C 149.769531 256.042969 149.589844 256.347656 149.4375 256.652344 C 149.371094 256.785156 149.398438 256.964844 149.539062 257.039062 C 149.667969 257.105469 149.859375 257.078125 149.929688 256.9375 C 149.996094 256.800781 150.070312 256.667969 150.152344 256.535156 C 150.191406 256.472656 150.242188 256.414062 150.28125 256.351562 C 150.242188 256.414062 150.269531 256.363281 150.28125 256.351562 L 150.316406 256.308594 L 150.390625 256.226562 L 150.46875 256.152344 L 150.511719 256.117188 L 150.523438 256.105469 L 150.507812 256.117188 L 150.59375 256.058594 L 150.6875 256.007812 L 150.703125 256 C 150.730469 255.988281 150.726562 255.988281 150.683594 256.007812 L 150.734375 255.988281 L 150.828125 255.960938 L 150.882812 255.949219 L 150.9375 255.941406 L 151.007812 255.941406 C 151.15625 255.9375 151.300781 255.8125 151.292969 255.65625 C 151.285156 255.503906 151.167969 255.371094 151.007812 255.371094 "/>
<path style=" stroke:none;fill-rule:nonzero;fill:#2c3c43;fill-opacity:1;" d="M 150.28125 181.121094 C 140.046875 178.015625 136.28125 177.949219 137.496094 187.488281 C 139.011719 199.367188 144.378906 209.089844 145.898438 214.738281 C 147.015625 218.886719 155.679688 219.746094 156.011719 217.554688 C 156.808594 212.277344 155.980469 204.5 155.496094 200.605469 C 154.503906 192.636719 152.128906 181.683594 150.28125 181.121094 "/>
<path style=" stroke:none;fill-rule:nonzero;fill:#2c3c43;fill-opacity:1;" d="M 155.160156 212.320312 C 158.355469 223.324219 152.183594 237 149.046875 253.597656 C 147.503906 253.769531 145.597656 254.003906 143.40625 253.246094 C 143.40625 253.246094 142.164062 216.664062 147.742188 211.179688 C 150.621094 208.347656 154.535156 210.171875 155.160156 212.320312 "/>
<path style=" stroke:none;fill-rule:nonzero;fill:rgb(132,83,72);fill-opacity:1;" d="M 122.398438 256.015625 C 122.414062 254.5625 122.511719 252.894531 122.914062 252.28125 C 123.542969 251.210938 124.023438 252.847656 125.34375 252.742188 L 126.351562 251.335938 C 126.15625 252.675781 127.105469 254.328125 128.195312 255.15625 C 128.496094 255.449219 128.859375 255.734375 129.257812 255.988281 L 122.398438 256.015625 "/>
<g clip-path="url(#clip3)" clip-rule="nonzero">
<path style=" stroke:none;fill-rule:nonzero;fill:#fff559;fill-opacity:1;" d="M 122.417969 255.132812 C 124.074219 255.738281 126.28125 255.675781 127.8125 254.824219 C 127.9375 254.945312 128.066406 255.058594 128.195312 255.15625 C 128.972656 255.910156 130.152344 256.628906 131.296875 256.839844 C 132.234375 257.070312 133.308594 256.476562 134.359375 256.796875 C 136.667969 257.527344 137.117188 260.542969 134.949219 261.53125 C 132.984375 262.503906 130.582031 261.886719 128.503906 261.441406 C 126.101562 260.824219 121.398438 261.902344 121.914062 257.882812 C 121.992188 257.285156 122.375 256.289062 122.417969 255.132812 "/>
</g>
<g clip-path="url(#clip4)" clip-rule="nonzero">
<path style=" stroke:none;fill-rule:nonzero;fill:rgb(100%,100%,100%);fill-opacity:1;" d="M 128.445312 260.542969 C 130.703125 260.988281 133.3125 261.609375 135.445312 260.632812 C 135.761719 260.5 136.023438 260.332031 136.238281 260.136719 C 136.050781 260.714844 135.628906 261.222656 134.949219 261.53125 C 132.984375 262.503906 130.582031 261.886719 128.503906 261.441406 C 126.453125 260.914062 122.726562 261.621094 122.003906 259.335938 C 123.433594 260.53125 126.582031 260.101562 128.445312 260.542969 "/>
</g>
<path style=" stroke:none;fill-rule:nonzero;fill:rgb(8.239746%,10.198975%,21.179199%);fill-opacity:1;" d="M 133.488281 256.3125 C 131.898438 255.984375 130.847656 257.554688 130.425781 258.863281 C 130.304688 259.230469 130.226562 259.613281 130.199219 259.996094 C 130.175781 260.363281 130.746094 260.359375 130.769531 259.996094 C 130.820312 259.246094 131.121094 258.449219 131.554688 257.816406 C 131.953125 257.222656 132.585938 256.703125 133.339844 256.859375 C 133.695312 256.933594 133.847656 256.386719 133.488281 256.3125 "/>
<path style=" stroke:none;fill-rule:nonzero;fill:rgb(8.239746%,10.198975%,21.179199%);fill-opacity:1;" d="M 130.207031 256.039062 C 129.835938 256.097656 129.480469 256.265625 129.210938 256.523438 C 128.933594 256.792969 128.769531 257.160156 128.769531 257.546875 C 128.769531 257.695312 128.898438 257.835938 129.054688 257.832031 C 129.207031 257.824219 129.335938 257.707031 129.339844 257.546875 C 129.339844 257.507812 129.339844 257.46875 129.34375 257.425781 C 129.347656 257.371094 129.332031 257.5 129.34375 257.425781 L 129.355469 257.371094 L 129.386719 257.261719 L 129.402344 257.214844 C 129.421875 257.164062 129.378906 257.273438 129.398438 257.226562 C 129.433594 257.15625 129.472656 257.09375 129.515625 257.03125 C 129.546875 256.984375 129.476562 257.078125 129.507812 257.039062 L 129.550781 256.988281 L 129.625 256.914062 L 129.707031 256.84375 C 129.746094 256.808594 129.652344 256.882812 129.707031 256.84375 L 129.753906 256.808594 C 129.816406 256.769531 129.882812 256.730469 129.953125 256.699219 C 129.972656 256.691406 130.035156 256.667969 129.957031 256.695312 L 130.003906 256.679688 L 130.117188 256.640625 C 130.195312 256.617188 130.277344 256.601562 130.355469 256.585938 C 130.421875 256.578125 130.496094 256.511719 130.527344 256.457031 C 130.5625 256.398438 130.578125 256.308594 130.554688 256.238281 C 130.503906 256.078125 130.363281 256.015625 130.207031 256.039062 "/>
<path style=" stroke:none;fill-rule:nonzero;fill:rgb(8.239746%,10.198975%,21.179199%);fill-opacity:1;" d="M 129.425781 255.371094 C 129.046875 255.378906 128.699219 255.535156 128.433594 255.800781 C 128.1875 256.042969 128.007812 256.347656 127.855469 256.652344 C 127.789062 256.785156 127.816406 256.964844 127.957031 257.039062 C 128.085938 257.105469 128.277344 257.078125 128.347656 256.9375 C 128.414062 256.800781 128.488281 256.667969 128.570312 256.535156 C 128.609375 256.472656 128.660156 256.414062 128.699219 256.351562 C 128.660156 256.414062 128.6875 256.363281 128.699219 256.351562 L 128.734375 256.308594 L 128.808594 256.226562 L 128.886719 256.152344 L 128.925781 256.117188 L 128.941406 256.105469 L 128.925781 256.117188 L 129.011719 256.058594 L 129.105469 256.007812 L 129.121094 256 C 129.148438 255.988281 129.144531 255.988281 129.101562 256.007812 L 129.152344 255.988281 L 129.246094 255.960938 L 129.300781 255.949219 L 129.355469 255.941406 L 129.425781 255.941406 C 129.574219 255.9375 129.71875 255.8125 129.710938 255.65625 C 129.703125 255.503906 129.585938 255.371094 129.425781 255.371094 "/>
<path style=" stroke:none;fill-rule:nonzero;fill:#2c3c43;fill-opacity:1;" d="M 138.355469 180.886719 C 129.277344 175.246094 125.65625 174.214844 124.355469 183.742188 C 122.730469 195.609375 124.148438 209.441406 124.148438 215.289062 C 124.148438 219.585938 133.539062 219.585938 134.429688 217.554688 C 136.570312 212.664062 137.792969 204.9375 138.332031 201.050781 C 139.445312 193.097656 139.996094 181.90625 138.355469 180.886719 "/>
<path style=" stroke:none;fill-rule:nonzero;fill:#2c3c43;fill-opacity:1;" d="M 133.578125 212.320312 C 136.773438 223.324219 130.597656 237 127.460938 253.597656 C 125.921875 253.769531 124.015625 254.003906 121.824219 253.246094 C 121.824219 253.246094 120.582031 216.664062 126.160156 211.179688 C 129.035156 208.347656 132.953125 210.171875 133.578125 212.320312 "/>
<path style=" stroke:none;fill-rule:nonzero;fill:rgb(132,83,72);fill-opacity:1;" d="M 164.980469 124.898438 C 165.078125 122.980469 165.058594 120.414062 163.265625 119.640625 C 160.613281 118.5 160.316406 122.941406 160.148438 124.445312 C 160.066406 125.167969 160.011719 126.351562 159.101562 126.503906 C 158.605469 126.589844 157.792969 126.25 157.417969 126.707031 C 156.945312 127.28125 157.5625 128.445312 157.851562 128.960938 C 158.078125 129.371094 158.355469 129.742188 158.667969 130.085938 C 158.957031 130.40625 159.371094 130.671875 159.617188 131.011719 C 160.132812 131.730469 160.46875 132.855469 160.59375 133.71875 C 160.671875 134.261719 163.265625 152.324219 159.320312 153.980469 C 155.3125 155.660156 153.40625 152.367188 153.40625 152.367188 L 147.144531 157.070312 C 147.144531 157.070312 150.617188 164.6875 161.339844 160.632812 C 161.550781 160.554688 161.757812 160.421875 161.957031 160.316406 C 162.796875 159.875 163.59375 159.359375 164.238281 158.65625 C 164.894531 157.941406 165.375 157.082031 165.75 156.1875 C 166.148438 155.230469 166.441406 154.230469 166.652344 153.21875 C 166.882812 152.121094 167.011719 151.003906 167.066406 149.882812 C 167.128906 148.710938 167.109375 147.53125 167.050781 146.355469 C 166.996094 145.203125 166.898438 144.050781 166.761719 142.902344 C 166.632812 141.78125 166.46875 140.667969 166.273438 139.558594 C 166.101562 138.59375 165.910156 137.632812 165.699219 136.675781 C 165.527344 135.910156 165.34375 135.148438 165.160156 134.382812 C 165.074219 134.019531 164.988281 133.660156 164.898438 133.296875 C 164.820312 132.953125 164.640625 132.535156 164.636719 132.1875 C 164.613281 130.132812 164.816406 128.085938 164.914062 126.035156 C 164.929688 125.703125 164.957031 125.316406 164.980469 124.898438 "/>
<path style=" stroke:none;fill-rule:nonzero;fill:#ffe500;fill-opacity:1;" d="M 152.929688 154.019531 C 153.265625 153.46875 153.5625 152.90625 153.832031 152.328125 C 153.644531 152.148438 153.46875 151.957031 153.304688 151.757812 C 151.089844 149.058594 150.863281 145.394531 148.851562 142.585938 C 147.988281 141.382812 146.554688 139.820312 144.929688 139.816406 C 143.589844 139.8125 142.617188 140.875 142.183594 142.039062 C 140.042969 147.757812 142.855469 154.546875 147.734375 158.820312 C 149.683594 157.445312 151.660156 156.085938 152.929688 154.019531 "/>
<path style=" stroke:none;fill-rule:nonzero;fill:#fff559;fill-opacity:1;" d="M 151.015625 170.382812 C 148.964844 165.179688 148.570312 156.503906 150.429688 151.40625 C 153.304688 143.53125 140.972656 137.320312 137.796875 137.371094 C 130.027344 137.488281 124.203125 142.527344 126.335938 150.933594 C 127.667969 156.191406 127.421875 165.507812 125.53125 170.769531 C 124.621094 173.300781 122.804688 184.066406 129.21875 184.800781 C 133.476562 185.285156 142.945312 185.773438 147.183594 184.941406 C 152.945312 183.816406 152.375 173.835938 151.015625 170.382812 "/>
<path style=" stroke:none;fill-rule:nonzero;fill:rgb(132,83,72);fill-opacity:1;" d="M 134.742188 129.496094 L 133.234375 140.003906 C 133.234375 141.710938 134.585938 145.140625 139.9375 145.140625 C 142.707031 145.140625 142.40625 141.707031 142.285156 140.003906 C 142.09375 137.355469 140.773438 129.496094 140.773438 129.496094 L 134.742188 129.496094 "/>
<path style=" stroke:none;fill-rule:nonzero;fill:rgb(8.239746%,10.198975%,21.179199%);fill-opacity:1;" d="M 141.285156 133.0625 C 139.617188 135.199219 136.535156 135.890625 133.941406 135.050781 L 134.738281 129.496094 L 140.773438 129.496094 L 141.285156 133.0625 "/>
<path style=" stroke:none;fill-rule:nonzero;fill:rgb(132,83,72);fill-opacity:1;" d="M 131.789062 120.535156 C 131.628906 121.117188 131.539062 121.734375 131.539062 122.371094 L 131.539062 126.679688 C 131.539062 130.476562 134.628906 133.554688 138.441406 133.554688 C 142.253906 133.554688 145.34375 130.476562 145.34375 126.679688 L 145.34375 122.371094 C 145.34375 121.734375 145.167969 120.550781 145.007812 119.964844 L 136.046875 115.53125 L 131.789062 120.535156 "/>
<path style=" stroke:none;fill-rule:nonzero;fill:rgb(14.898682%,27.839661%,49.01886%);fill-opacity:1;" d="M 144.347656 124.210938 C 144.234375 124.210938 144.148438 124.121094 144.148438 124.011719 C 144.148438 123.710938 144.070312 123.511719 144.019531 123.445312 C 143.96875 123.511719 143.890625 123.710938 143.890625 124.011719 C 143.890625 124.121094 143.800781 124.210938 143.691406 124.210938 C 143.582031 124.210938 143.492188 124.121094 143.492188 124.011719 C 143.492188 123.539062 143.660156 123.03125 144.019531 123.03125 C 144.378906 123.03125 144.542969 123.539062 144.542969 124.011719 C 144.542969 124.121094 144.457031 124.210938 144.347656 124.210938 "/>
<path style=" stroke:none;fill-rule:nonzero;fill:rgb(14.898682%,27.839661%,49.01886%);fill-opacity:1;" d="M 139.242188 124.210938 C 139.128906 124.210938 139.042969 124.121094 139.042969 124.011719 C 139.042969 123.683594 138.882812 123.425781 138.75 123.425781 C 138.613281 123.425781 138.457031 123.683594 138.457031 124.011719 C 138.457031 124.121094 138.367188 124.210938 138.257812 124.210938 C 138.148438 124.210938 138.058594 124.121094 138.058594 124.011719 C 138.058594 123.460938 138.363281 123.03125 138.75 123.03125 C 139.136719 123.03125 139.4375 123.460938 139.4375 124.011719 C 139.4375 124.121094 139.351562 124.210938 139.242188 124.210938 "/>
<path style=" stroke:none;fill-rule:nonzero;fill:rgb(14.898682%,27.839661%,49.01886%);fill-opacity:1;" d="M 141.824219 126.4375 L 142.890625 126.4375 C 142.96875 126.4375 143.03125 126.371094 143.03125 126.296875 C 143.03125 125.824219 142.515625 123.878906 142.496094 123.796875 C 142.472656 123.722656 142.398438 123.675781 142.320312 123.695312 C 142.246094 123.71875 142.199219 123.792969 142.222656 123.871094 C 142.355469 124.367188 142.675781 125.640625 142.738281 126.15625 L 141.824219 126.15625 C 141.746094 126.15625 141.683594 126.21875 141.683594 126.296875 C 141.683594 126.371094 141.746094 126.4375 141.824219 126.4375 "/>
<path style=" stroke:none;fill-rule:nonzero;fill:rgb(14.898682%,27.839661%,49.01886%);fill-opacity:1;" d="M 139.59375 120.320312 C 139.320312 120.226562 138.960938 120.324219 138.691406 120.394531 C 138.285156 120.503906 137.894531 120.660156 137.519531 120.84375 C 137.304688 120.949219 137.09375 121.070312 136.898438 121.207031 C 136.699219 121.347656 136.339844 121.589844 136.277344 121.835938 C 136.261719 121.890625 136.277344 121.917969 136.308594 121.929688 C 136.398438 121.957031 136.609375 121.851562 136.671875 121.828125 C 137.0625 121.664062 137.449219 121.484375 137.871094 121.398438 C 138.226562 121.328125 138.59375 121.339844 138.949219 121.40625 C 139.175781 121.449219 139.589844 121.65625 139.734375 121.382812 C 139.824219 121.203125 139.832031 120.988281 139.8125 120.796875 C 139.796875 120.648438 139.777344 120.382812 139.59375 120.320312 "/>
<path style=" stroke:none;fill-rule:nonzero;fill:rgb(14.898682%,27.839661%,49.01886%);fill-opacity:1;" d="M 145.214844 121.835938 C 145.183594 121.589844 144.988281 121.347656 144.878906 121.207031 C 144.777344 121.070312 144.664062 120.949219 144.546875 120.84375 C 144.34375 120.660156 144.132812 120.503906 143.914062 120.394531 C 143.769531 120.324219 143.578125 120.226562 143.429688 120.320312 C 143.328125 120.382812 143.320312 120.648438 143.3125 120.796875 C 143.300781 120.988281 143.304688 121.203125 143.355469 121.382812 C 143.433594 121.65625 143.652344 121.449219 143.777344 121.40625 C 143.964844 121.339844 144.164062 121.328125 144.355469 121.398438 C 144.585938 121.484375 144.792969 121.664062 145.003906 121.828125 C 145.039062 121.851562 145.152344 121.957031 145.199219 121.929688 C 145.214844 121.917969 145.222656 121.890625 145.214844 121.835938 "/>
<path style=" stroke:none;fill-rule:nonzero;fill:rgb(14.898682%,27.839661%,49.01886%);fill-opacity:1;" d="M 137.582031 123.953125 L 137.507812 123.929688 C 137.441406 123.886719 137.421875 123.800781 137.464844 123.734375 C 138.277344 122.472656 139.65625 123.125 139.671875 123.132812 C 139.742188 123.167969 139.769531 123.25 139.734375 123.320312 C 139.703125 123.390625 139.617188 123.421875 139.546875 123.386719 C 139.5 123.363281 138.375 122.835938 137.703125 123.886719 C 137.675781 123.929688 137.628906 123.953125 137.582031 123.953125 "/>
<path style=" stroke:none;fill-rule:nonzero;fill:rgb(14.898682%,27.839661%,49.01886%);fill-opacity:1;" d="M 144.796875 123.953125 C 144.765625 123.953125 144.734375 123.929688 144.714844 123.886719 C 144.265625 122.835938 143.519531 123.363281 143.488281 123.386719 C 143.441406 123.421875 143.386719 123.390625 143.363281 123.320312 C 143.339844 123.253906 143.359375 123.167969 143.40625 123.132812 C 143.414062 123.125 144.335938 122.472656 144.875 123.734375 C 144.902344 123.800781 144.890625 123.886719 144.84375 123.929688 L 144.796875 123.953125 "/>
<path style=" stroke:none;fill-rule:nonzero;fill:rgb(14.898682%,27.839661%,49.01886%);fill-opacity:1;" d="M 141.203125 127.71875 C 141.144531 127.71875 141.089844 127.757812 141.070312 127.816406 C 140.917969 128.277344 140.445312 128.355469 140.355469 128.367188 C 140.007812 128.410156 139.59375 128.273438 139.46875 127.9375 C 139.441406 127.867188 139.359375 127.828125 139.285156 127.855469 C 139.214844 127.882812 139.175781 127.964844 139.203125 128.035156 C 139.390625 128.53125 139.949219 128.699219 140.386719 128.648438 C 140.742188 128.605469 141.179688 128.386719 141.335938 127.902344 C 141.359375 127.828125 141.320312 127.75 141.246094 127.726562 L 141.203125 127.71875 "/>
<g clip-path="url(#clip5)" clip-rule="nonzero">
<path style=" stroke:none;fill-rule:nonzero;fill:rgb(3.919983%,8.239746%,19.60907%);fill-opacity:1;" d="M 132.078125 115.332031 C 131.671875 115.109375 131.09375 115.230469 130.476562 115.40625 C 130.675781 114.96875 131.15625 114.695312 131.773438 114.410156 C 131.625 113.933594 132.207031 112.953125 133.03125 112.503906 C 132.875 112.835938 132.859375 113.539062 133.007812 113.789062 C 133.238281 114.179688 133.835938 114.507812 134.46875 114.667969 C 134.792969 114.75 134.4375 114.746094 133.964844 115.039062 C 133.585938 115.273438 132.566406 116.445312 132.523438 116.058594 C 132.523438 116.058594 132.34375 115.476562 132.078125 115.332031 "/>
</g>
<path style=" stroke:none;fill-rule:nonzero;fill:rgb(3.919983%,8.239746%,19.60907%);fill-opacity:1;" d="M 147.246094 116.261719 C 146.925781 116.683594 145.207031 116.96875 144.890625 116.726562 C 145.761719 115.105469 145.496094 113.984375 145.21875 113.710938 C 145.078125 114.046875 144.117188 114.898438 140.039062 113.511719 C 137.078125 112.503906 134.066406 113.953125 133.058594 114.726562 C 132.609375 115.070312 132.285156 115.507812 131.945312 115.953125 C 130.96875 117.25 130.308594 118.648438 130.253906 120.304688 C 130.097656 125.117188 130.820312 126.605469 131.578125 127.410156 C 131.902344 127.757812 132.304688 126.109375 132.289062 125.6875 L 132.734375 124.828125 C 132.800781 124.582031 133.476562 124.183594 133.992188 123.820312 C 134.015625 123.910156 134.039062 124.003906 134.066406 124.097656 C 134.078125 124.144531 134.09375 124.191406 134.109375 124.242188 C 134.320312 124.328125 134.527344 124.390625 134.808594 124.371094 C 135.214844 124.347656 135.640625 124.261719 135.980469 124.027344 C 136.015625 123.015625 135.496094 121.976562 136.050781 121.039062 C 136.34375 120.550781 136.785156 120.164062 137.03125 119.648438 C 137.085938 119.535156 137.121094 119.417969 137.144531 119.300781 C 137.476562 119.429688 137.871094 119.460938 138.1875 119.546875 C 139.238281 119.832031 140.25 119.96875 141.332031 120.070312 C 142.300781 120.15625 143.289062 120.246094 144.257812 120.140625 C 145.109375 120.046875 146.28125 119.855469 146.933594 119.261719 C 147.730469 118.535156 147.660156 117.144531 147.246094 116.261719 "/>
<path style=" stroke:none;fill-rule:nonzero;fill:rgb(132,83,72);fill-opacity:1;" d="M 132.046875 122.230469 C 131.070312 122.382812 130.453125 123.363281 131.0625 124.742188 C 131.578125 125.90625 131.699219 127 132.671875 126.851562 C 133.644531 126.703125 134.292969 125.546875 134.121094 124.273438 C 133.945312 122.996094 133.019531 122.082031 132.046875 122.230469 "/>
<path style=" stroke:none;fill-rule:nonzero;fill:rgb(132,83,72);fill-opacity:1;" d="M 165.527344 179.773438 C 164.59375 178.925781 162.949219 178.597656 161.707031 178.507812 C 161.40625 178.484375 161.097656 178.503906 160.828125 178.496094 C 144.730469 178.058594 137.949219 155.90625 137.949219 155.90625 C 131.847656 152.28125 129.539062 158.554688 129.539062 158.554688 C 136.699219 182.5 161.039062 183.480469 161.039062 183.480469 C 161.289062 183.492188 162.394531 183.550781 162.777344 184.199219 C 163.097656 184.75 163.128906 185.417969 163.839844 185.628906 C 165.207031 186.039062 165.949219 184.164062 166.453125 183.234375 C 167.03125 182.167969 166.375 180.546875 165.527344 179.773438 "/>
<path style=" stroke:none;fill-rule:nonzero;fill:#ffe500;fill-opacity:1;" d="M 138.347656 155.601562 C 135.839844 146.957031 133.261719 136.628906 127.671875 141.351562 C 124.269531 144.226562 124.769531 149.292969 128.660156 158.78125 C 131.945312 157.921875 135.34375 157.21875 138.347656 155.601562 "/>
<path style=" stroke:none;fill-rule:nonzero;fill:#6E6E6E;fill-opacity:1;" d="M 244.253906 236.132812 C 245.738281 236.082031 247.140625 235.828125 248.566406 235.410156 C 248.597656 237.375 250.175781 240.703125 252.496094 238.453125 C 253.894531 237.09375 253.980469 233.601562 252.808594 232.105469 C 251.28125 230.15625 248.59375 231.042969 246.457031 231.292969 C 243.085938 231.6875 238.941406 231.421875 237.320312 229.851562 C 236.175781 228.746094 238.425781 225.6875 236.550781 225.847656 C 234.929688 225.984375 233.476562 227.3125 232.988281 228.824219 C 232.0625 231.699219 230.445312 235.289062 233.226562 236.039062 C 235.472656 236.640625 241.945312 236.214844 244.253906 236.132812 "/>
<path style=" stroke:none;fill-rule:nonzero;fill:#bdbdbd;fill-opacity:1;" d="M 189.292969 219.433594 C 186.511719 219.390625 184.097656 218.871094 182.332031 216.550781 C 180.441406 214.0625 179.582031 210.640625 179.511719 207.558594 C 179.414062 203.074219 182.832031 195.378906 188.644531 197.496094 C 191.269531 198.453125 192.070312 201.300781 192.628906 203.742188 C 193.761719 202.464844 192.816406 200.097656 192.761719 198.625 C 193.679688 199.175781 193.9375 200.125 194.558594 200.84375 C 194.804688 199.050781 193.113281 198.058594 192.617188 196.660156 C 193.265625 196.6875 194.621094 196.902344 195.195312 197.277344 C 194.207031 196.386719 193.191406 195.414062 192.214844 194.554688 C 193.050781 194.480469 194.3125 194.347656 195.066406 194.671875 C 193.578125 193.246094 191.90625 192.332031 189.949219 192.585938 C 187.828125 192.855469 189.109375 191.71875 190.074219 190.867188 C 187.914062 190.484375 186.984375 191.546875 185.371094 192.484375 C 185.429688 191.402344 185.472656 190.804688 185.96875 190.050781 C 184.222656 189.804688 182.320312 191.597656 180.980469 193.195312 C 180.9375 192.453125 181.175781 191.785156 181.472656 191.113281 C 179.722656 191.984375 178.980469 194.136719 178.234375 195.765625 C 177.589844 194.875 177.351562 193.679688 177.257812 193.054688 C 176.128906 193.269531 174.503906 197.375 174.195312 198.265625 C 173.1875 197.707031 172.890625 197.453125 172.46875 196.585938 C 171.425781 198.859375 172.625 202.8125 173.136719 205.054688 C 172.199219 204.824219 171.378906 204.492188 170.433594 203.28125 C 170.304688 204.460938 171.449219 208.046875 172.074219 208.996094 C 170.734375 208.742188 170.039062 208.078125 169.15625 207.0625 C 168.976562 209.558594 169.9375 211.484375 171.535156 213.75 C 170.609375 213.5625 169.742188 212.96875 168.972656 212.078125 C 168.933594 215.734375 171.355469 217.191406 172.871094 218.5 C 171.578125 218.382812 170.367188 218.417969 169.515625 217.910156 C 170.683594 220.628906 172.992188 221.789062 176.046875 222.832031 C 175.265625 222.921875 174.355469 223.148438 173.265625 222.851562 C 175.570312 225.324219 177.558594 224.320312 179.1875 224.839844 C 178.472656 225.324219 177.914062 225.445312 177.011719 225.644531 C 179.21875 226.410156 180.152344 225.746094 181.4375 225.621094 C 181.070312 225.796875 181.207031 226.542969 181.078125 226.855469 C 182.175781 226.808594 182.820312 226.589844 183.910156 226.335938 C 184.832031 226.121094 185.484375 225.839844 186.453125 225.890625 C 187.277344 225.933594 188.105469 226.730469 188.738281 226.6875 C 189.507812 226.636719 189.835938 225.375 190.21875 224.835938 L 189.292969 219.433594 "/>
<path style=" stroke:none;fill-rule:nonzero;fill:#2c3c43;fill-opacity:1;" d="M 177.578125 211.039062 C 178.371094 214.765625 181.261719 217.578125 184.152344 219.882812 C 185.863281 221.246094 188.078125 222.058594 189.949219 223.253906 L 189.292969 219.433594 C 186.511719 219.390625 184.097656 218.871094 182.332031 216.550781 C 180.441406 214.0625 179.582031 210.640625 179.511719 207.558594 C 179.460938 205.203125 180.382812 201.957031 182.113281 199.71875 C 178.546875 201.953125 176.695312 206.867188 177.578125 211.039062 "/>
<path style=" stroke:none;fill-rule:nonzero;fill:#6E6E6E;fill-opacity:1;" d="M 209.160156 255.859375 L 202.605469 248.734375 C 202.839844 248.554688 203.070312 248.371094 203.300781 248.183594 C 203.746094 247.8125 204.183594 247.421875 204.617188 247.007812 C 205.046875 246.585938 205.472656 246.152344 205.882812 245.679688 C 206.296875 245.214844 206.691406 244.707031 207.074219 244.175781 C 207.453125 243.636719 207.820312 243.078125 208.152344 242.464844 C 208.820312 241.253906 209.375 239.878906 209.726562 238.371094 C 210.074219 236.863281 210.203125 235.226562 210.074219 233.589844 C 209.949219 231.953125 209.570312 230.324219 209.007812 228.808594 C 208.445312 227.285156 207.710938 225.867188 206.847656 224.546875 C 206.410156 223.890625 205.945312 223.253906 205.433594 222.632812 C 205.175781 222.320312 204.910156 222.015625 204.617188 221.703125 C 204.464844 221.546875 204.316406 221.390625 204.144531 221.226562 L 203.871094 220.972656 L 203.710938 220.832031 L 203.609375 220.75 L 203.523438 220.6875 L 203.472656 220.652344 L 203.460938 220.640625 C 202.8125 220.0625 202.035156 219.546875 201.203125 219.171875 C 196.746094 217.160156 191.5 219.128906 189.480469 223.5625 C 187.460938 228 189.4375 233.226562 193.890625 235.234375 L 193.960938 235.265625 L 193.96875 235.269531 L 193.941406 235.246094 L 193.890625 235.207031 L 193.867188 235.175781 L 193.859375 235.140625 L 193.890625 235.105469 C 193.917969 235.085938 193.964844 235.082031 194.011719 235.078125 C 194.109375 235.074219 194.222656 235.085938 194.335938 235.105469 C 194.566406 235.140625 194.8125 235.203125 195.050781 235.273438 C 195.523438 235.417969 195.976562 235.605469 196.378906 235.8125 C 196.789062 236.023438 197.152344 236.253906 197.484375 236.546875 C 197.808594 236.835938 198.101562 237.195312 198.328125 237.664062 C 198.550781 238.132812 198.707031 238.710938 198.746094 239.378906 C 198.777344 239.710938 198.761719 240.066406 198.742188 240.433594 C 198.707031 240.804688 198.664062 241.1875 198.582031 241.578125 C 198.507812 241.972656 198.402344 242.371094 198.285156 242.78125 C 198.160156 243.1875 198.015625 243.601562 197.855469 244.015625 C 197.695312 244.429688 197.515625 244.847656 197.324219 245.265625 C 197.128906 245.683594 196.917969 246.097656 196.695312 246.515625 L 196.457031 246.808594 C 195.609375 247.851562 195.746094 249.386719 196.773438 250.261719 L 205.410156 258.769531 L 205.414062 258.769531 C 206.070312 259.460938 207.179688 259.832031 208.800781 259.988281 C 210.386719 260.136719 213.542969 260.421875 213.628906 258.339844 C 213.71875 256.167969 210.953125 256.699219 209.160156 255.859375 "/>
<path style=" stroke:none;fill-rule:nonzero;fill:rgb(9.01947%,13.729858%,18.03894%);fill-opacity:1;" d="M 231.535156 187.585938 C 232.015625 187.730469 232.832031 188.640625 233.707031 190.570312 C 234.582031 192.5 236.503906 192.871094 236.503906 192.871094 L 239.492188 191.328125 C 236.855469 186.511719 231.535156 187.585938 231.535156 187.585938 "/>
<path style=" stroke:none;fill-rule:nonzero;fill:#bdbdbd;fill-opacity:1;" d="M 205.921875 228.132812 L 205.914062 227.917969 L 205.90625 227.789062 L 205.890625 227.679688 L 205.882812 227.621094 L 205.882812 227.601562 C 205.855469 226.734375 205.695312 225.816406 205.394531 224.953125 C 203.785156 220.355469 198.734375 217.925781 194.117188 219.527344 C 189.5 221.132812 187.058594 226.160156 188.667969 230.757812 L 188.695312 230.835938 L 188.699219 230.839844 L 188.695312 230.800781 L 188.6875 230.734375 L 188.695312 230.695312 L 188.710938 230.65625 L 188.757812 230.636719 L 188.855469 230.679688 C 188.925781 230.730469 188.992188 230.800781 189.058594 230.875 C 189.1875 231.03125 189.3125 231.207031 189.421875 231.386719 C 189.644531 231.746094 189.828125 232.101562 189.976562 232.4375 C 190.125 232.773438 190.242188 233.09375 190.292969 233.445312 C 190.339844 233.796875 190.3125 234.191406 190.125 234.625 C 189.945312 235.054688 189.609375 235.515625 189.136719 235.953125 C 188.664062 236.390625 188.054688 236.800781 187.371094 237.171875 C 187.023438 237.351562 186.65625 237.527344 186.277344 237.6875 C 185.894531 237.847656 185.496094 237.996094 185.085938 238.132812 C 184.671875 238.273438 184.25 238.398438 183.820312 238.519531 C 183.386719 238.636719 182.945312 238.738281 182.496094 238.839844 L 182.132812 238.84375 C 180.835938 238.859375 179.753906 239.871094 179.667969 241.179688 L 178.738281 256.019531 C 178.460938 258.617188 179.71875 259.695312 182.808594 259.988281 C 184.394531 260.136719 187.554688 260.421875 187.636719 258.339844 C 187.726562 256.167969 185.253906 256.03125 183.769531 256.199219 C 183.726562 256.0625 183.695312 255.925781 183.65625 255.789062 L 184.445312 244.78125 C 185.789062 245.097656 187.203125 245.328125 188.710938 245.410156 C 189.910156 245.46875 191.167969 245.433594 192.492188 245.226562 C 193.816406 245.019531 195.210938 244.636719 196.601562 243.988281 C 197.996094 243.347656 199.375 242.421875 200.578125 241.257812 C 201.789062 240.097656 202.8125 238.714844 203.597656 237.257812 C 204.386719 235.800781 204.953125 234.277344 205.339844 232.742188 C 205.53125 231.972656 205.679688 231.199219 205.785156 230.402344 C 205.835938 230 205.875 229.597656 205.902344 229.171875 C 205.914062 228.957031 205.925781 228.742188 205.925781 228.507812 C 205.925781 228.386719 205.925781 228.265625 205.921875 228.132812 "/>
<path style=" stroke:none;fill-rule:nonzero;fill:#bdbdbd;fill-opacity:1;" d="M 239.265625 225.632812 C 237.824219 231.234375 230.90625 235.15625 227.980469 239.742188 C 226.058594 242.746094 225.117188 246.792969 225.648438 250.332031 C 225.855469 251.714844 226.101562 253.160156 226.511719 254.5 C 227.996094 254.332031 230.660156 254.273438 230.570312 256.445312 C 230.488281 258.527344 227.753906 258.890625 226.167969 258.742188 C 221.140625 258.265625 219.339844 253.503906 218.785156 249.101562 C 218.417969 246.203125 218.816406 243.421875 219.425781 240.589844 C 218.785156 240.515625 218.074219 240.699219 217.246094 241.554688 C 217.214844 240.414062 217.5625 239.757812 218.136719 239.304688 C 217.628906 239.292969 216.898438 239.214844 216.320312 239.957031 C 216.480469 237.953125 217.761719 237.640625 219.121094 236.308594 C 220.804688 234.660156 220.710938 232.480469 221.519531 230.386719 C 223.34375 225.671875 228.726562 219.773438 234.417969 222.015625 C 237.601562 223.265625 238.089844 222.242188 237.902344 225.199219 L 239.265625 225.632812 "/>
<path style=" stroke:none;fill-rule:nonzero;fill:#bdbdbd;fill-opacity:1;" d="M 250.976562 194.378906 C 249.75 193.828125 247.539062 194.199219 245.832031 193.507812 C 244.441406 192.910156 242.730469 192.214844 241.183594 191.570312 C 239.382812 190.707031 237.984375 190.058594 236.683594 189.972656 C 236.214844 189.785156 235.5625 189.925781 235.101562 190.058594 C 235.011719 190.085938 234.917969 190.113281 234.828125 190.144531 C 234.761719 190.167969 234.699219 190.199219 234.636719 190.222656 C 234.554688 190.257812 234.476562 190.292969 234.398438 190.332031 C 234.335938 190.363281 234.273438 190.394531 234.210938 190.429688 C 234.121094 190.480469 234.03125 190.53125 233.941406 190.589844 C 233.890625 190.621094 233.835938 190.652344 233.78125 190.6875 C 233.644531 190.78125 233.503906 190.882812 233.363281 190.996094 C 233.320312 191.027344 233.277344 191.066406 233.238281 191.097656 C 233.128906 191.1875 233.019531 191.28125 232.910156 191.382812 C 232.855469 191.429688 232.800781 191.484375 232.746094 191.53125 C 232.644531 191.636719 232.535156 191.742188 232.425781 191.855469 C 232.375 191.90625 232.328125 191.953125 232.277344 192.007812 C 232.121094 192.175781 231.960938 192.351562 231.800781 192.542969 C 231.652344 192.695312 231.519531 192.859375 231.390625 193.023438 L 231.304688 193.128906 C 230.734375 193.882812 230.285156 194.742188 229.75 195.582031 C 229.375 196.167969 228.960938 196.742188 228.429688 197.257812 C 226.984375 198.558594 225.105469 199.554688 223.769531 201.0625 C 221.613281 203.535156 219.519531 206.378906 218.75 209.449219 C 219.730469 208.53125 220.761719 207.453125 222.027344 207.316406 C 221.425781 208.699219 220.140625 210.046875 220.132812 211.785156 C 220.757812 211.453125 221.765625 211.582031 222.390625 211.253906 C 222.097656 212.648438 220.3125 213.8125 218.925781 214.890625 C 216.730469 215.675781 214.550781 216.207031 212.316406 216.578125 L 212.277344 216.585938 C 211.386719 216.734375 210.484375 216.855469 209.570312 216.957031 L 209.476562 216.964844 C 209.066406 217.011719 208.65625 217.050781 208.238281 217.089844 C 208.179688 217.09375 208.117188 217.097656 208.054688 217.105469 C 207.167969 217.179688 206.265625 217.242188 205.347656 217.292969 C 205.246094 217.300781 205.148438 217.304688 205.046875 217.308594 C 204.691406 217.328125 204.332031 217.34375 203.96875 217.359375 C 203.851562 217.367188 203.730469 217.371094 203.613281 217.375 C 203.164062 217.394531 202.707031 217.410156 202.25 217.425781 C 197.796875 217.425781 191.886719 217.238281 188.691406 219.484375 C 188.601562 219.542969 188.515625 219.605469 188.429688 219.671875 L 188.363281 219.722656 C 187.382812 220.488281 186.671875 221.527344 186.472656 222.941406 C 186.425781 223.28125 186.40625 223.632812 186.402344 223.992188 C 186.402344 224.105469 186.402344 224.21875 186.40625 224.335938 C 186.410156 224.511719 186.421875 224.691406 186.4375 224.871094 C 186.445312 224.941406 186.449219 225.011719 186.457031 225.082031 C 186.65625 226.984375 187.351562 228.980469 188.222656 230.472656 C 188.46875 230.890625 188.777344 231.265625 189.125 231.589844 C 194.050781 237.460938 203.941406 234.652344 211.613281 235.289062 C 219.609375 235.988281 226.921875 240.875 233.253906 234.171875 C 234.324219 233.109375 235.46875 231.558594 236.535156 229.753906 C 236.585938 229.875 236.664062 229.972656 236.777344 229.996094 C 236.890625 230.019531 237.117188 229.808594 237.320312 229.851562 C 237.484375 230.433594 237.335938 231.019531 237.226562 231.605469 C 238.050781 230.378906 238.707031 228.75 238.8125 227.289062 C 238.921875 227.660156 239.066406 228.089844 239.015625 228.496094 C 240.007812 226.976562 240.164062 224.710938 240.214844 223.917969 C 240.921875 224.191406 240.75 225.28125 240.851562 225.90625 C 241.117188 225.414062 241.175781 225.015625 241.246094 224.605469 C 241.339844 224.070312 241.382812 223.515625 241.449219 222.972656 C 241.5625 222.023438 241.429688 221.035156 241.496094 220.109375 L 241.308594 220.324219 C 241.59375 219.304688 241.832031 218.269531 242.042969 217.234375 C 242.652344 214.113281 242.667969 210.636719 242.429688 207.433594 C 242.453125 206.222656 241.539062 203.507812 242.039062 202.441406 C 242.894531 200.792969 244.863281 201.191406 246.71875 201.433594 C 251.28125 202.019531 254.984375 196.117188 250.976562 194.378906 "/>
<path style=" stroke:none;fill-rule:nonzero;fill:#2c3c43;fill-opacity:1;" d="M 188.429688 219.671875 L 188.363281 219.722656 L 188.320312 219.757812 C 187.871094 221.101562 189.03125 221.230469 189.96875 221.554688 C 191.28125 222.011719 191.84375 223.058594 191.371094 224.421875 C 190.800781 226.066406 191.355469 228.449219 193.492188 227.230469 C 194.421875 226.699219 195.242188 226.027344 196.09375 225.386719 C 199.316406 222.953125 204.269531 219.582031 208.351562 222.242188 C 210.421875 223.589844 211.933594 225.597656 213.976562 226.976562 C 216.101562 228.410156 220.652344 230.132812 222.082031 226.765625 C 223.425781 223.617188 220.304688 222.597656 219.496094 220.105469 C 218.96875 218.484375 219.371094 216.949219 220.570312 215.75 C 224.058594 212.253906 229.03125 218.890625 232.40625 214.707031 C 234.980469 211.515625 234.320312 206.515625 233.816406 202.746094 C 233.382812 199.503906 232.398438 195.703125 234.058594 192.628906 C 234.824219 191.207031 236.019531 190.375 237.347656 190.066406 C 237.125 190.023438 236.902344 189.988281 236.683594 189.972656 C 236.214844 189.785156 235.5625 189.925781 235.101562 190.058594 C 235.007812 190.085938 234.917969 190.113281 234.828125 190.144531 C 234.761719 190.171875 234.699219 190.199219 234.636719 190.226562 C 234.554688 190.257812 234.476562 190.292969 234.398438 190.332031 C 234.335938 190.363281 234.273438 190.394531 234.210938 190.429688 C 234.121094 190.480469 234.03125 190.535156 233.941406 190.589844 C 233.886719 190.625 233.835938 190.652344 233.78125 190.6875 C 233.644531 190.78125 233.503906 190.882812 233.363281 190.996094 C 233.320312 191.027344 233.277344 191.066406 233.238281 191.101562 C 233.128906 191.1875 233.019531 191.28125 232.910156 191.382812 C 232.855469 191.429688 232.800781 191.484375 232.746094 191.53125 C 232.640625 191.636719 232.535156 191.742188 232.425781 191.855469 C 232.375 191.90625 232.328125 191.953125 232.277344 192.007812 C 232.121094 192.175781 231.960938 192.351562 231.800781 192.542969 C 231.652344 192.695312 231.519531 192.859375 231.386719 193.023438 L 231.304688 193.128906 C 230.734375 193.882812 230.28125 194.742188 229.746094 195.582031 C 229.375 196.167969 228.960938 196.742188 228.429688 197.257812 C 226.984375 198.558594 225.105469 199.554688 223.769531 201.0625 C 221.613281 203.535156 219.519531 206.378906 218.75 209.449219 C 219.730469 208.53125 220.761719 207.453125 222.027344 207.316406 C 221.425781 208.699219 220.140625 210.046875 220.132812 211.785156 C 220.757812 211.453125 221.765625 211.582031 222.390625 211.253906 C 222.097656 212.648438 220.3125 213.8125 218.925781 214.890625 C 216.730469 215.675781 214.550781 216.207031 212.316406 216.578125 L 212.277344 216.585938 C 211.386719 216.734375 210.484375 216.855469 209.570312 216.957031 L 209.476562 216.964844 C 209.066406 217.011719 208.652344 217.050781 208.238281 217.089844 C 208.179688 217.09375 208.117188 217.097656 208.054688 217.105469 C 207.167969 217.183594 206.265625 217.242188 205.347656 217.292969 C 205.246094 217.300781 205.148438 217.304688 205.046875 217.308594 C 204.691406 217.328125 204.332031 217.34375 203.96875 217.359375 C 203.851562 217.367188 203.730469 217.371094 203.613281 217.375 C 203.164062 217.394531 202.707031 217.410156 202.25 217.429688 C 197.796875 217.425781 191.886719 217.238281 188.691406 219.484375 C 188.601562 219.542969 188.515625 219.605469 188.429688 219.671875 "/>
<path style=" stroke:none;fill-rule:nonzero;fill:#2c3c43;fill-opacity:1;" d="M 225.714844 189.90625 C 226.21875 189.894531 227.277344 190.511719 228.707031 192.074219 C 230.140625 193.640625 232.085938 193.394531 232.085938 193.394531 L 234.445312 191.003906 C 230.4375 187.242188 225.714844 189.90625 225.714844 189.90625 "/>
<path style=" stroke:none;fill-rule:nonzero;fill:#bdbdbd;fill-opacity:1;" d="M 232.628906 192.761719 C 232.367188 192.351562 231.722656 191.417969 231.109375 191.082031 C 231.109375 191.082031 232.1875 191.429688 233.011719 192.445312 L 233.121094 192.355469 C 233.324219 192.195312 233.601562 191.957031 233.792969 191.695312 C 231.632812 189.054688 228.402344 190.152344 228.402344 190.152344 C 228.734375 190.207031 229.351562 190.738281 230.097656 191.941406 C 230.78125 193.046875 231.941406 193.203125 232.121094 193.21875 C 232.289062 193.0625 232.457031 192.910156 232.628906 192.761719 "/>
<path style=" stroke:none;fill-rule:nonzero;fill:rgb(9.01947%,13.729858%,18.03894%);fill-opacity:1;" d="M 248.878906 194.015625 C 248.878906 194.015625 250.488281 193.265625 251.492188 193.765625 C 251.492188 193.765625 252.453125 194.742188 251.972656 195.699219 C 251.972656 195.699219 251.511719 196.050781 251.367188 195.40625 C 251.21875 194.761719 251.113281 194.285156 250.78125 194.511719 C 250.445312 194.742188 250.945312 195.386719 249.902344 195.46875 C 248.859375 195.554688 248.3125 194.582031 248.878906 194.015625 "/>
<path style=" stroke:none;fill-rule:nonzero;fill:rgb(14.898682%,27.839661%,49.01886%);fill-opacity:1;" d="M 239.367188 192.210938 C 239.367188 192.667969 239.082031 193.039062 238.734375 193.039062 C 238.378906 193.039062 238.09375 192.667969 238.09375 192.210938 C 238.09375 191.753906 238.378906 191.382812 238.734375 191.382812 C 239.082031 191.382812 239.367188 191.753906 239.367188 192.210938 "/>
<path style=" stroke:none;fill-rule:nonzero;fill:#a0f8ee;fill-opacity:1;" d="M 237.113281 221.523438 C 229.542969 221.523438 222.9375 218.859375 219.152344 214.085938 L 221.644531 212.125 C 225.546875 217.042969 233.671875 219.296875 242.183594 217.914062 L 241.460938 221.238281 C 239.597656 221.539062 238.894531 221.523438 237.113281 221.523438 "/>
<path style=" stroke:none;fill-rule:nonzero;fill:#a0f8ee;fill-opacity:1;" d="M 164.972656 179.078125 C 163.855469 179.191406 163.179688 180.222656 162.738281 181.144531 C 162.285156 182.089844 161.984375 183.117188 161.777344 184.144531 C 161.695312 184.539062 162.480469 184.457031 162.554688 184.09375 C 162.738281 183.191406 163.003906 182.300781 163.378906 181.457031 C 163.574219 181.023438 163.800781 180.59375 164.105469 180.222656 C 164.234375 180.066406 164.375 179.921875 164.546875 179.808594 C 164.59375 179.777344 164.675781 179.734375 164.761719 179.703125 C 164.699219 179.722656 164.808594 179.691406 164.816406 179.6875 C 164.90625 179.667969 164.859375 179.675781 164.914062 179.671875 C 165.089844 179.652344 165.316406 179.546875 165.332031 179.351562 C 165.351562 179.160156 165.136719 179.0625 164.972656 179.078125 "/>
<path style=" stroke:none;fill-rule:nonzero;fill:#a0f8ee;fill-opacity:1;" d="M 164.214844 178.707031 C 163.351562 178.46875 162.699219 179.226562 162.359375 179.910156 C 161.941406 180.75 161.699219 181.71875 161.644531 182.652344 C 161.625 183.03125 161.613281 183.472656 161.78125 183.824219 C 161.921875 184.121094 162.675781 183.886719 162.546875 183.621094 C 162.382812 183.277344 162.394531 182.855469 162.421875 182.480469 C 162.460938 181.953125 162.566406 181.429688 162.714844 180.921875 C 162.855469 180.445312 163.035156 179.972656 163.3125 179.558594 C 163.410156 179.410156 163.554688 179.261719 163.644531 179.191406 L 163.699219 179.15625 C 163.660156 179.179688 163.65625 179.179688 163.695312 179.160156 C 163.75 179.132812 163.625 179.164062 163.734375 179.148438 C 163.691406 179.15625 163.671875 179.152344 163.703125 179.15625 L 163.699219 179.152344 L 163.757812 179.167969 C 163.933594 179.214844 164.175781 179.15625 164.300781 179.023438 C 164.414062 178.898438 164.382812 178.753906 164.214844 178.707031 "/>
<path style=" stroke:none;fill-rule:nonzero;fill:#a0f8ee;fill-opacity:1;" d="M 164.800781 179.066406 C 164.941406 178.507812 165.113281 177.949219 165.417969 177.453125 C 165.453125 177.390625 165.492188 177.332031 165.535156 177.273438 L 165.613281 177.167969 L 165.648438 177.125 C 165.695312 177.066406 165.75 177.011719 165.804688 176.957031 L 165.886719 176.882812 C 165.894531 176.875 165.980469 176.804688 165.929688 176.84375 C 165.992188 176.796875 166.058594 176.757812 166.121094 176.71875 C 166.195312 176.671875 166.078125 176.734375 166.152344 176.699219 C 166.191406 176.679688 166.230469 176.664062 166.273438 176.644531 C 166.285156 176.640625 166.390625 176.605469 166.300781 176.632812 C 166.34375 176.621094 166.390625 176.605469 166.433594 176.597656 C 166.453125 176.59375 166.554688 176.574219 166.46875 176.589844 C 166.519531 176.582031 166.566406 176.574219 166.617188 176.570312 C 166.503906 176.527344 166.390625 176.488281 166.28125 176.445312 C 166.453125 176.984375 166.207031 177.441406 165.832031 177.792969 C 165.78125 177.84375 165.726562 177.886719 165.671875 177.933594 L 165.585938 178 L 165.542969 178.035156 C 165.421875 178.121094 165.300781 178.203125 165.179688 178.285156 C 164.9375 178.4375 164.6875 178.578125 164.4375 178.71875 C 164.320312 178.789062 164.222656 178.953125 164.375 179.039062 C 164.539062 179.128906 164.773438 179.058594 164.921875 178.972656 C 165.867188 178.4375 167.476562 177.574219 167.046875 176.242188 C 167.007812 176.113281 166.820312 176.105469 166.710938 176.117188 C 165.902344 176.199219 165.21875 176.640625 164.769531 177.3125 C 164.398438 177.863281 164.191406 178.515625 164.03125 179.15625 C 163.953125 179.453125 164.730469 179.34375 164.800781 179.066406 "/>
<path style=" stroke:none;fill-rule:nonzero;fill:#a0f8ee;fill-opacity:1;" d="M 161.382812 184.023438 C 161.28125 186.144531 162.429688 188.132812 163.214844 190.035156 C 164.222656 192.460938 165.335938 194.8125 166.609375 197.113281 C 167.753906 199.191406 168.945312 201.1875 170.496094 202.996094 C 171.992188 204.738281 173.691406 206.304688 175.507812 207.710938 C 179.207031 210.578125 183.492188 212.894531 188.042969 214.074219 C 193.300781 215.433594 198.765625 215.558594 204.160156 215.308594 C 206.964844 215.179688 209.734375 214.777344 212.523438 214.476562 C 215.300781 214.175781 218.140625 213.945312 220.910156 214.417969 C 221.257812 214.476562 221.703125 213.996094 221.191406 213.90625 C 216.46875 213.105469 211.621094 214.15625 206.921875 214.625 C 204.269531 214.890625 201.566406 214.941406 198.902344 214.894531 C 196.167969 214.84375 193.425781 214.621094 190.738281 214.101562 C 186.046875 213.195312 181.699219 211.230469 177.777344 208.519531 C 174.085938 205.964844 170.726562 202.75 168.472656 198.847656 C 166.964844 196.238281 165.515625 193.578125 164.371094 190.789062 C 163.914062 189.675781 163.417969 188.582031 162.972656 187.464844 C 162.527344 186.355469 162.097656 185.160156 162.15625 183.949219 C 162.171875 183.585938 161.398438 183.710938 161.382812 184.023438 "/>
</g>
</svg>
