<svg id="icons" xmlns="http://www.w3.org/2000/svg" viewBox="0 0 128 128"><defs><style>.Graphic-Style-9{fill:#bdbdbd;}.cls-1{fill:#fff559;stroke:#2c3c43;stroke-linecap:round;stroke-linejoin:round;stroke-width:1px;}.cls-2{fill:#a0f8ee;stroke:#2c3c43;stroke-linecap:round;stroke-linejoin:round;stroke-width:1px;}.cls-3{fill:none;stroke:#2c3c43;stroke-linecap:round;stroke-linejoin:round;stroke-width:4px;}</style></defs><title>doghouse</title><polygon class="Graphic-Style-9" points="104 56 104 112 24 112 24 56 36.01 43.99 50.98 29.02 64 16 104 56"/><path class="cls-1" d="M92.907,44.907c2.1-2.55,2.607-6.872,2.308-9.781-.216-2.1-1.323-4.508-3.384-5.394a2.823,2.823,0,0,0-3.076.365c-.593.518-.84,2.071-1.359,2.389-.5.308-2.548-.379-3.263-.369a8.234,8.234,0,0,0-3.29.727L64,16,50.98,29.02a14.921,14.921,0,0,0,7.16,3.25c1.68.36,4.04.5,5.35,1.68,2.23,2.01-.45,6.31-.93,8.84-1.32,6.98.87,13.73,8.67,14.65,3.83.45,8.52-.67,12.16.98,3.62,1.65,3.48,6.49,7.55,8.07,5.06,1.97,9.83-2.27,13.06-6.16V56Z"/><path class="cls-2" d="M39.63,62.93c1.67-2.29,2.9-4.61,2.89-7.52-.02-4.76-2.7-8.63-6.51-11.42L24,56V91.94a16.966,16.966,0,0,0,6.88-1.88c6.61-3.55,7.55-9.11,6-15.91-.61-2.64-1.33-4.83-.09-7.43A26.019,26.019,0,0,1,39.63,62.93Z"/><path class="cls-1" d="M96.96,85.5a27.089,27.089,0,0,0-13.98.77c-4.28,1.42-6.06,3.89-8.76,6.83-7.3-2.55-13.49,3.26-12.28,11.48A15.962,15.962,0,0,0,65.6,112H104V87.17C101.57,86.46,99.13,85.94,96.96,85.5Z"/><polyline class="cls-3" points="104 56 104 112 24 112 24 56"/><line class="cls-3" x1="82" y1="102" x2="104" y2="102"/><polyline class="cls-3" points="92.91 44.91 104 56 118 70"/><polyline class="cls-3" points="10 70 24 56 64 16 80.84 32.84"/><path class="cls-3" d="M64,62h0A18,18,0,0,1,82,80v32a0,0,0,0,1,0,0H46a0,0,0,0,1,0,0V80A18,18,0,0,1,64,62Z"/><line class="cls-3" x1="24" y1="102" x2="46" y2="102"/><path class="cls-3" d="M75,44a4,4,0,0,0-8,0H61a4,4,0,1,0-6.62,3A3.993,3.993,0,1,0,61,50h6a4,4,0,1,0,6.62-3A3.973,3.973,0,0,0,75,44Z"/><path class="cls-1" d="M100.393,32.459c2.736-.794,6.148,4.15.734,4.237S97.656,33.253,100.393,32.459Z"/></svg>