<?xml version="1.0" encoding="UTF-8"?>
<svg xmlns="http://www.w3.org/2000/svg" xmlns:xlink="http://www.w3.org/1999/xlink" width="375pt" height="374.999991pt" viewBox="0 0 375 374.999991" version="1.2">
<defs>
<clipPath id="clip1">
  <path d="M 85.125 49.703125 L 375 49.703125 L 375 234 L 85.125 234 Z M 85.125 49.703125 "/>
</clipPath>
<clipPath id="clip2">
  <path d="M 270 271.234375 L 305 271.234375 L 305 310.292969 L 270 310.292969 Z M 270 271.234375 "/>
</clipPath>
</defs>
<g id="surface1">
<path style="fill:none;stroke-width:50;stroke-linecap:round;stroke-linejoin:round;stroke:rgb(1.568604%,2.349854%,2.349854%);stroke-opacity:1;stroke-miterlimit:10;" d="M 2411.190749 1916.180983 L 2113.839184 1370.40151 L 1568.033868 1667.734726 C 1127.248718 1907.893564 1424.600283 2453.673037 1865.385432 2213.514199 C 2104.676351 2652.791516 2650.481668 2355.4583 2411.190749 1916.180983 Z M 2411.190749 1916.180983 " transform="matrix(0.0886734,0,0,-0.0886132,0.0000045,310.295077)"/>
<g clip-path="url(#clip1)" clip-rule="nonzero">
<path style="fill:none;stroke-width:67.363998;stroke-linecap:round;stroke-linejoin:round;stroke:rgb(1.568604%,2.349854%,2.349854%);stroke-opacity:1;stroke-miterlimit:10;" d="M 4195.432294 1475.933862 C 4193.802367 660.06386 3174.701463 1397.732361 2544.360198 1057.683669 C 1613.892087 555.809886 951.17254 1364.141863 997.118863 1943.952655 C 1047.338239 2578.248822 1506.669315 2849.088745 2043.620163 2898.592852 C 2245.995435 2917.283628 2459.383729 2904.455761 2666.032053 2867.779521 C 2797.791835 2844.371969 2924.74994 2809.635338 3045.056181 2765.465156 C 3723.238009 2516.84257 4196.269284 1969.872882 4195.432294 1475.933862 Z M 4195.432294 1475.933862 " transform="matrix(0.0886734,0,0,-0.0886132,0.0000045,310.295077)"/>
</g>
<path style="fill:none;stroke-width:67.363998;stroke-linecap:round;stroke-linejoin:round;stroke:rgb(1.568604%,2.349854%,2.349854%);stroke-opacity:1;stroke-miterlimit:10;" d="M 3909.974792 1386.667775 C 3793.23677 1261.915662 3474.784257 1370.313346 3198.577693 1628.678057 C 2922.41518 1887.130933 2817.923638 2221.581209 2934.661659 2346.28924 C 3051.311577 2471.041353 3345.094923 2338.751215 3621.213383 2080.386503 C 3897.375896 1821.933627 4026.624709 1511.331723 3909.974792 1386.667775 Z M 3909.974792 1386.667775 " transform="matrix(0.0886734,0,0,-0.0886132,0.0000045,310.295077)"/>
<path style="fill:none;stroke-width:67.363998;stroke-linecap:round;stroke-linejoin:round;stroke:rgb(1.568604%,2.349854%,2.349854%);stroke-opacity:1;stroke-miterlimit:10;" d="M 3557.954591 224.269023 L 3755.528186 231.718884 C 3755.528186 231.718884 3696.101926 530.815381 4000.457772 440.932145 C 4217.590492 376.83689 4034.201668 217.304064 3922.397479 216.598752 " transform="matrix(0.0886734,0,0,-0.0886132,0.0000045,310.295077)"/>
<path style="fill:none;stroke-width:67.363998;stroke-linecap:round;stroke-linejoin:round;stroke:rgb(1.568604%,2.349854%,2.349854%);stroke-opacity:1;stroke-miterlimit:10;" d="M 1134.957833 2399.319908 C 1134.957833 2399.319908 -218.101917 2512.03763 75.329012 1154.4437 C 351.579629 -123.626268 2922.899753 160.350096 2922.899753 160.350096 " transform="matrix(0.0886734,0,0,-0.0886132,0.0000045,310.295077)"/>
<g clip-path="url(#clip2)" clip-rule="nonzero">
<path style="fill:none;stroke-width:67.363998;stroke-linecap:round;stroke-linejoin:round;stroke:rgb(1.568604%,2.349854%,2.349854%);stroke-opacity:1;stroke-miterlimit:10;" d="M 3323.597506 33.702456 L 3154.525609 33.702456 C 3113.821484 33.702456 3080.782421 66.719888 3080.782421 107.451674 L 3080.782421 331.476493 C 3080.782421 372.208278 3113.821484 405.22571 3154.525609 405.22571 L 3323.597506 405.22571 C 3364.345683 405.22571 3397.340694 372.208278 3397.340694 331.476493 L 3397.340694 107.451674 C 3397.340694 66.719888 3364.345683 33.702456 3323.597506 33.702456 Z M 3323.597506 33.702456 " transform="matrix(0.0886734,0,0,-0.0886132,0.0000045,310.295077)"/>
</g>
</g>
</svg>
