<?xml version="1.0" encoding="UTF-8"?>
<svg xmlns="http://www.w3.org/2000/svg" xmlns:xlink="http://www.w3.org/1999/xlink" width="375pt" height="374.999991pt" viewBox="0 0 375 374.999991" version="1.2">
<g id="surface1">
<path style=" stroke:#000;stroke-linecap:round;stroke-linejoin:round;stroke-width:1.5px;fill-rule:nonzero;fill:rgb(9.408569%,9.799194%,11.369324%);fill-opacity:1;" d="M 370.835938 247.328125 C 370.835938 256.71875 363.195312 264.359375 353.796875 264.359375 L 336.246094 264.359375 C 335.109375 261.585938 332.429688 259.703125 329.316406 259.660156 L 296.617188 256.664062 C 291.625 215.167969 266.1875 192.082031 243.71875 171.683594 C 225.574219 155.226562 208.445312 139.671875 204.367188 116.792969 C 204.007812 115 202.988281 111.988281 201.238281 107.601562 C 200.527344 105.804688 199.707031 103.800781 198.796875 101.648438 C 203.003906 88.9375 198.296875 80.226562 196.046875 77.03125 C 195.496094 76.253906 192.636719 72.375 190.222656 72.375 C 189.4375 72.375 188.738281 72.730469 188.300781 73.367188 C 188.113281 73.625 187.875 74.101562 187.886719 74.746094 L 186.070312 79.671875 C 181.976562 74.289062 176.769531 71.90625 174.5625 71.90625 C 172.980469 71.90625 172.371094 72.964844 172.222656 73.285156 C 172.113281 73.53125 171.855469 74.253906 172.179688 75.105469 L 172.179688 91.652344 L 157.1875 93.421875 C 151.6875 93.515625 148.582031 99.171875 147.65625 103.347656 L 129.441406 102.921875 C 126.5625 102.921875 121.816406 104.179688 120.546875 107.664062 C 120.179688 108.710938 119.976562 110.367188 121.113281 112.378906 L 128.304688 130.941406 C 128.382812 131.148438 128.492188 131.34375 128.636719 131.515625 C 128.875 131.804688 134.558594 138.714844 140.929688 138.714844 C 141.066406 138.714844 141.199219 138.703125 141.332031 138.679688 L 166.738281 133.777344 C 168.964844 135.117188 174.097656 139.050781 173.503906 142.039062 C 172.90625 145.085938 171.390625 149.148438 169.785156 153.445312 C 164.851562 166.660156 158.09375 184.765625 169.179688 196.777344 C 169.304688 196.910156 169.441406 197.027344 169.597656 197.125 C 169.867188 197.296875 170.144531 197.480469 170.417969 197.667969 L 179.578125 262.089844 L 178.253906 262.089844 C 175.921875 262.089844 173.785156 263.472656 172.8125 265.601562 C 172.460938 266.382812 172.277344 267.21875 172.277344 268.0625 C 172.277344 271.359375 174.960938 274.042969 178.253906 274.042969 L 187.535156 274.042969 C 188.445312 274.042969 189.226562 273.46875 189.527344 272.652344 C 189.921875 272.589844 190.296875 272.421875 190.605469 272.144531 C 191.066406 271.746094 191.332031 271.167969 191.332031 270.554688 L 191.332031 268.0625 C 191.332031 267.128906 191.046875 266.21875 190.511719 265.363281 L 190.277344 265 L 190.613281 215.734375 C 197.835938 223.332031 205.914062 232.683594 214.683594 243.628906 C 211.710938 246.40625 210.105469 249.726562 210.105469 253.148438 C 210.105469 254.738281 210.453125 256.316406 211.132812 257.828125 L 200.285156 257.828125 C 195.828125 257.828125 192.203125 261.457031 192.203125 265.921875 C 192.203125 266.148438 192.222656 266.363281 192.269531 266.675781 C 192.660156 270.859375 196.109375 274.007812 200.285156 274.007812 L 264.5 274.007812 L 264.5 353.65625 C 264.5 363.054688 256.859375 370.695312 247.46875 370.695312 L 127.671875 370.695312 C 118.28125 370.695312 110.644531 363.054688 110.644531 353.65625 L 110.644531 266.476562 C 110.644531 265.308594 109.695312 264.359375 108.527344 264.359375 L 21.34375 264.359375 C 11.945312 264.359375 4.304688 256.71875 4.304688 247.328125 L 4.304688 127.53125 C 4.304688 118.140625 11.945312 110.5 21.34375 110.5 L 108.527344 110.5 C 109.695312 110.5 110.644531 109.550781 110.644531 108.378906 L 110.644531 21.199219 C 110.644531 11.808594 118.28125 4.167969 127.671875 4.167969 L 247.46875 4.167969 C 256.859375 4.167969 264.5 11.808594 264.5 21.199219 L 264.5 108.378906 C 264.5 109.550781 265.449219 110.5 266.621094 110.5 L 353.796875 110.5 C 363.195312 110.5 370.835938 118.140625 370.835938 127.53125 Z M 353.796875 106.261719 L 268.738281 106.261719 L 268.738281 21.199219 C 268.738281 9.472656 259.199219 -0.0703125 247.46875 -0.0703125 L 127.671875 -0.0703125 C 115.945312 -0.0703125 106.40625 9.472656 106.40625 21.199219 L 106.40625 106.261719 L 21.34375 106.261719 C 9.613281 106.261719 0.0664062 115.804688 0.0664062 127.53125 L 0.0664062 247.328125 C 0.0664062 259.058594 9.613281 268.597656 21.34375 268.597656 L 106.40625 268.597656 L 106.40625 353.65625 C 106.40625 365.386719 115.945312 374.929688 127.671875 374.929688 L 247.46875 374.929688 C 259.199219 374.929688 268.738281 365.386719 268.738281 353.65625 L 268.738281 271.890625 C 268.738281 270.722656 267.789062 269.773438 266.621094 269.773438 L 200.285156 269.773438 C 198.304688 269.773438 196.671875 268.269531 196.484375 266.261719 L 196.4375 265.921875 C 196.4375 263.796875 198.167969 262.0625 200.285156 262.0625 L 215.03125 262.0625 C 216.203125 262.0625 217.152344 261.113281 217.152344 259.945312 C 217.152344 259.316406 216.875 258.75 216.433594 258.355469 C 215.042969 256.691406 214.34375 254.9375 214.34375 253.148438 C 214.34375 249.753906 216.820312 247.179688 218.898438 245.617188 C 219.359375 245.269531 219.660156 244.757812 219.734375 244.1875 C 219.804688 243.621094 219.644531 243.046875 219.285156 242.597656 C 208.421875 228.964844 198.578125 217.683594 190.035156 209.054688 C 189.433594 208.445312 188.523438 208.257812 187.734375 208.585938 C 186.9375 208.910156 186.414062 209.675781 186.410156 210.53125 L 186.035156 265.738281 C 186.027344 266.300781 186.25 266.84375 186.644531 267.238281 C 186.734375 267.332031 186.824219 267.449219 186.921875 267.609375 C 187 267.730469 187.09375 267.90625 187.09375 268.0625 L 187.09375 268.453125 C 186.425781 268.644531 185.894531 269.152344 185.675781 269.804688 L 178.253906 269.804688 C 177.292969 269.804688 176.515625 269.019531 176.515625 268.0625 C 176.515625 267.824219 176.570312 267.585938 176.675781 267.355469 C 176.957031 266.730469 177.574219 266.328125 178.253906 266.328125 L 182.050781 266.328125 C 183.21875 266.328125 184.167969 265.375 184.167969 264.210938 C 184.167969 263.984375 184.136719 263.769531 184.070312 263.570312 L 174.484375 196.144531 C 174.398438 195.558594 174.078125 195.035156 173.59375 194.699219 C 173.09375 194.355469 172.605469 194.019531 172.113281 193.703125 C 163.046875 183.601562 168.984375 167.707031 173.753906 154.921875 C 175.496094 150.265625 176.996094 146.246094 177.664062 142.863281 C 179.085938 135.667969 168.152344 129.710938 168.042969 129.65625 C 167.621094 129.445312 167.148438 129.378906 166.691406 129.464844 L 140.742188 134.476562 C 137.355469 134.347656 133.574219 130.761719 132.128906 129.085938 L 125.007812 110.691406 L 124.847656 110.375 C 124.53125 109.839844 124.425781 109.410156 124.539062 109.101562 C 124.902344 108.105469 127.285156 107.160156 129.394531 107.160156 L 149.433594 107.628906 L 149.480469 107.628906 C 150.605469 107.628906 151.542969 106.734375 151.59375 105.605469 C 151.722656 102.800781 153.988281 97.660156 157.320312 97.660156 L 157.570312 97.644531 L 174.546875 95.640625 C 175.609375 95.511719 176.417969 94.609375 176.417969 93.53125 L 176.417969 76.828125 C 178.65625 77.96875 182.222656 80.617188 184.699219 85.398438 C 185.085938 86.144531 185.875 86.601562 186.710938 86.542969 C 187.550781 86.488281 188.277344 85.945312 188.566406 85.15625 L 191.269531 77.832031 C 194.050781 80.832031 198.871094 88.828125 194.53125 101.019531 C 194.355469 101.523438 194.371094 102.074219 194.578125 102.5625 C 195.605469 104.96875 196.523438 107.1875 197.300781 109.164062 C 199.332031 114.261719 200.003906 116.578125 200.207031 117.582031 C 204.527344 141.84375 222.175781 157.859375 240.863281 174.824219 C 264.179688 195.976562 288.28125 217.859375 292.59375 258.835938 C 292.699219 259.839844 293.503906 260.628906 294.507812 260.722656 L 329.019531 263.886719 L 329.214844 263.894531 C 330.894531 263.894531 332.300781 265.113281 332.554688 266.792969 C 332.710938 267.828125 333.597656 268.597656 334.648438 268.597656 L 353.796875 268.597656 C 365.535156 268.597656 375.074219 259.058594 375.074219 247.328125 L 375.074219 127.53125 C 375.074219 115.804688 365.535156 106.261719 353.796875 106.261719 "/>
</g>
</svg>
